<?xml version="1.0" standalone="no"?><!DOCTYPE svg PUBLIC "-//W3C//DTD SVG 1.1//EN" "http://www.w3.org/Graphics/SVG/1.1/DTD/svg11.dtd"><svg t="1704966207311" class="icon" viewBox="0 0 1066 1024" version="1.1" xmlns="http://www.w3.org/2000/svg" p-id="1487" xmlns:xlink="http://www.w3.org/1999/xlink" width="208.203125" height="200"><path d="M992.426667 868.565333a320.981333 320.981333 0 0 1-75.093334-209.28v-318.293333c0-141.141333-95.701333-256-213.333333-256h-384c-117.632 0-213.333333 114.858667-213.333333 256 0 141.226667 95.701333 256 213.333333 256h128v62.293333a406.485333 406.485333 0 0 0 95.573333 264.789334 42.666667 42.666667 0 0 0 32.426667 14.933333h384a42.666667 42.666667 0 0 0 32.426667-70.442667zM320 511.701333c-70.570667 0-128-76.586667-128-170.666666 0-94.122667 57.429333-170.666667 128-170.666667s128 76.544 128 170.666667c0 94.08-57.429333 170.666667-128 170.666666z m276.437333 341.930667a323.413333 323.413333 0 0 1-63.104-194.346667v-298.666666c0-1.194667-0.597333-2.218667-0.682666-3.413334 0.298667-5.376 0.682667-10.709333 0.682666-16.213333a285.013333 285.013333 0 0 0-54.784-170.666667H704c70.570667 0 128 76.586667 128 170.666667v318.293333a414.293333 414.293333 0 0 0 47.701333 194.346667h-283.264zM320 287.701333a48.896 48.896 0 0 0-42.666667 53.333334 48.896 48.896 0 0 0 42.666667 53.333333 48.896 48.896 0 0 0 42.666667-53.333333 48.896 48.896 0 0 0-42.666667-53.333334z" fill="#42526E" p-id="1488"></path></svg>